<svg xmlns="http://www.w3.org/2000/svg" version="1.1" xmlns:xlink="http://www.w3.org/1999/xlink" xmlns:svgjs="http://svgjs.dev/svgjs" width="1500" height="1500" viewBox="0 0 1500 1500"><rect width="1500" height="1500" fill="#001f3f"></rect><g transform="matrix(0.6666666666666666,0,0,0.6666666666666666,249.39393939393938,516.7766081733856)"><svg viewBox="0 0 396 184" data-background-color="#001f3f" preserveAspectRatio="xMidYMid meet" height="696" width="1500" xmlns="http://www.w3.org/2000/svg" xmlns:xlink="http://www.w3.org/1999/xlink"><g id="tight-bounds" transform="matrix(1,0,0,1,0.2400000000000091,0.4851381381402007)"><svg viewBox="0 0 395.52 183.0297237237196" height="183.0297237237196" width="395.52"><g><svg viewBox="0 0 395.52 183.0297237237196" height="183.0297237237196" width="395.52"><g><svg viewBox="0 0 397.4975999999999 183.94487234233816" height="183.0297237237196" width="395.52"><g><rect width="397.4975999999999" height="3.442358915858218" x="0" y="103.27964510475948" fill="#ffffff" opacity="1" stroke-width="0" stroke="transparent" fill-opacity="1" class="rect-yte-0" data-fill-palette-color="primary" rx="1%" id="yte-0" data-palette-color="#ffffff"></rect></g><g transform="matrix(1,0,0,1,0.9887999999999693,115.73341479511566)"><svg viewBox="0 0 395.52 68.21145754722251" height="68.21145754722251" width="395.52"><g id="textblocktransform"><svg viewBox="0 0 395.52 68.21145754722251" height="68.21145754722251" width="395.52" id="textblock"><g><svg viewBox="0 0 395.52 38.17165139403392" height="38.17165139403392" width="395.52"><g transform="matrix(1,0,0,1,0,0)"><svg width="395.52" viewBox="4.38 -33.33 356.14 34.37" height="38.17165139403392" data-palette-color="#ffffff"><path d="M30-31.25L30 1.04 8.13-22.4 8.13 0 4.38 0 4.38-32.29 26.25-8.85 26.25-31.25 30-31.25ZM47.64 0.42L47.64 0.42Q44.37 0.42 41.79-1.04 39.2-2.5 37.72-5.02 36.25-7.53 36.25-10.63L36.25-10.63Q36.25-13.58 37.67-15.99 39.09-18.4 41.51-19.83 43.92-21.25 46.84-21.25L46.84-21.25Q49.72-21.25 52.12-19.88 54.51-18.51 55.94-16.18 57.36-13.85 57.36-10.9L57.36-10.9 57.36-9.38 43.75-9.38Q42.84-9.38 41.91-9.44 40.97-9.51 40.07-9.65L40.07-9.65Q40.45-6.88 42.58-5 44.72-3.13 47.67-3.13L47.67-3.13Q49.65-3.13 51.35-4.03 53.05-4.93 54.09-6.42L54.09-6.42 55.14-2.15Q53.64-0.94 51.72-0.26 49.79 0.42 47.64 0.42ZM39.96-12.19L39.96-12.19Q41.84-12.5 43.75-12.5L43.75-12.5 50.66-12.5Q51.42-12.5 52.17-12.45 52.91-12.4 53.68-12.33L53.68-12.33Q53.19-14.76 51.25-16.34 49.3-17.92 46.84-17.92L46.84-17.92Q44.3-17.92 42.39-16.23 40.48-14.55 39.96-12.19ZM64.16 0L59.86 0 67.18-11.04 60.65-20.83 65.03-20.83 67.04-17.64Q67.7-16.63 68.35-15.54 68.99-14.44 69.47-13.3L69.47-13.3Q70-14.44 70.64-15.52 71.28-16.6 71.94-17.64L71.94-17.64 73.92-20.83 78.22-20.83 71.7-11.04 79.02 0 74.58 0 71.73-4.55Q71.11-5.56 70.48-6.58 69.86-7.6 69.37-8.72L69.37-8.72Q68.88-7.6 68.26-6.58 67.63-5.56 67.01-4.55L67.01-4.55 64.16 0ZM89.37 0L85.62 0 85.62-17.71 80.9-17.71 80.9-20.83 85.72-20.83 85.72-27.78 89.26-27.78 89.26-20.83 94.44-20.83 94.44-17.71 89.37-17.71 89.37 0ZM113.84 0.63L113.84 0.63Q110.44 0.63 107.49-0.64 104.54-1.91 102.3-4.15 100.06-6.39 98.81-9.32 97.56-12.26 97.56-15.63L97.56-15.63Q97.56-18.99 98.83-21.93 100.09-24.86 102.33-27.1 104.57-29.34 107.52-30.61 110.48-31.88 113.88-31.88L113.88-31.88Q117.21-31.88 120.13-30.64 123.05-29.41 125.27-27.26L125.27-27.26 124.12-22.47Q122.52-25.03 119.83-26.58 117.14-28.13 113.88-28.13L113.88-28.13Q110.44-28.13 107.68-26.44 104.92-24.76 103.29-21.93 101.66-19.1 101.66-15.63L101.66-15.63Q101.66-12.22 103.27-9.38 104.89-6.53 107.65-4.83 110.41-3.13 113.84-3.13L113.84-3.13Q115.79-3.13 117.54-3.59 119.3-4.06 120.75-4.93L120.75-4.93 120.75-13.13 112.14-13.13 112.14-16.67 124.57-16.67 124.57-2.92Q122.46-1.15 119.66-0.26 116.87 0.63 113.84 0.63ZM141.38 0.42L141.38 0.42Q138.11 0.42 135.53-1.04 132.94-2.5 131.46-5.02 129.99-7.53 129.99-10.63L129.99-10.63Q129.99-13.58 131.41-15.99 132.83-18.4 135.25-19.83 137.66-21.25 140.58-21.25L140.58-21.25Q143.46-21.25 145.86-19.88 148.25-18.51 149.68-16.18 151.1-13.85 151.1-10.9L151.1-10.9 151.1-9.38 137.49-9.38Q136.58-9.38 135.65-9.44 134.71-9.51 133.81-9.65L133.81-9.65Q134.19-6.88 136.32-5 138.46-3.13 141.41-3.13L141.41-3.13Q143.39-3.13 145.09-4.03 146.79-4.93 147.83-6.42L147.83-6.42 148.88-2.15Q147.38-0.94 145.46-0.26 143.53 0.42 141.38 0.42ZM133.7-12.19L133.7-12.19Q135.58-12.5 137.49-12.5L137.49-12.5 144.4-12.5Q145.16-12.5 145.91-12.45 146.65-12.4 147.42-12.33L147.42-12.33Q146.93-14.76 144.99-16.34 143.04-17.92 140.58-17.92L140.58-17.92Q138.04-17.92 136.13-16.23 134.22-14.55 133.7-12.19ZM159.85 0L156.1 0 156.1-20.83 159.57-20.83 159.57-17.47Q160.71-19.31 162.54-20.28 164.36-21.25 166.48-21.25L166.48-21.25Q168.7-21.25 170.59-20.16 172.49-19.06 173.67-17 174.85-14.93 174.85-11.98L174.85-11.98 174.85 0 171.1 0 171.1-11.46Q171.1-13.92 169.62-15.82 168.14-17.71 165.47-17.71L165.47-17.71Q163.28-17.71 161.56-16.13 159.85-14.55 159.85-11.56L159.85-11.56 159.85 0ZM218.17-31.25L218.17 1.04 196.3-22.4 196.3 0 192.55 0 192.55-32.29 214.42-8.85 214.42-31.25 218.17-31.25ZM235.81 0.42L235.81 0.42Q232.55 0.42 229.96-1.04 227.37-2.5 225.9-5.02 224.42-7.53 224.42-10.63L224.42-10.63Q224.42-13.58 225.85-15.99 227.27-18.4 229.68-19.83 232.1-21.25 235.01-21.25L235.01-21.25Q237.89-21.25 240.29-19.88 242.69-18.51 244.11-16.18 245.53-13.85 245.53-10.9L245.53-10.9 245.53-9.38 231.92-9.38Q231.02-9.38 230.08-9.44 229.14-9.51 228.24-9.65L228.24-9.65Q228.62-6.88 230.76-5 232.89-3.13 235.85-3.13L235.85-3.13Q237.82-3.13 239.53-4.03 241.23-4.93 242.27-6.42L242.27-6.42 243.31-2.15Q241.82-0.94 239.89-0.26 237.96 0.42 235.81 0.42ZM228.14-12.19L228.14-12.19Q230.01-12.5 231.92-12.5L231.92-12.5 238.83-12.5Q239.6-12.5 240.34-12.45 241.09-12.4 241.85-12.33L241.85-12.33Q241.37-14.76 239.42-16.34 237.48-17.92 235.01-17.92L235.01-17.92Q232.48-17.92 230.57-16.23 228.66-14.55 228.14-12.19ZM256.71 0L252.96 0 252.96-17.71 248.24-17.71 248.24-20.83 253.07-20.83 253.07-27.78 256.61-27.78 256.61-20.83 261.78-20.83 261.78-17.71 256.71-17.71 256.71 0ZM277.96-8.26L273.76 1.04 263.24-20.83 267.51-20.83 271.71-11.81Q272.3-10.52 272.84-9.31 273.38-8.09 273.9-6.25L273.9-6.25Q274.45-8.06 275.02-9.31 275.6-10.56 276.12-11.81L276.12-11.81 280.32-21.81 284.49-11.81Q285.01-10.52 285.56-9.31 286.12-8.09 286.64-6.25L286.64-6.25Q287.16-8.09 287.72-9.32 288.27-10.56 288.86-11.81L288.86-11.81 293.13-20.83 297.13-20.83 286.6 1.04 282.37-8.26Q281.81-9.51 281.27-10.75 280.74-11.98 280.18-13.72L280.18-13.72Q279.66-11.98 279.1-10.75 278.55-9.51 277.96-8.26L277.96-8.26ZM310.39 0.42L310.39 0.42Q307.37 0.42 304.87-1.04 302.37-2.5 300.89-4.97 299.41-7.43 299.41-10.42L299.41-10.42Q299.41-13.44 300.89-15.89 302.37-18.33 304.87-19.79 307.37-21.25 310.39-21.25L310.39-21.25Q313.44-21.25 315.92-19.79 318.41-18.33 319.88-15.89 321.36-13.44 321.36-10.42L321.36-10.42Q321.36-7.43 319.88-4.97 318.41-2.5 315.92-1.04 313.44 0.42 310.39 0.42ZM310.39-3.13L310.39-3.13Q312.4-3.13 314.03-4.11 315.66-5.1 316.64-6.75 317.61-8.4 317.61-10.42L317.61-10.42Q317.61-12.43 316.64-14.08 315.66-15.73 314.03-16.72 312.4-17.71 310.39-17.71L310.39-17.71Q308.37-17.71 306.74-16.72 305.11-15.73 304.14-14.08 303.16-12.43 303.16-10.42L303.16-10.42Q303.16-8.4 304.14-6.75 305.11-5.1 306.74-4.11 308.37-3.13 310.39-3.13ZM330.31 0L326.56 0 326.56-20.83 330.04-20.83 330.04-17.01Q331.15-18.85 332.99-19.95 334.83-21.04 337.36-21.04L337.36-21.04 338.3-17.29Q337.64-17.5 336.77-17.5L336.77-17.5Q333.86-17.5 332.09-15.64 330.31-13.78 330.31-10.35L330.31-10.35 330.31 0ZM360.52 0L355.76 0 346.35-11.46 354.1-20.83 358.44-20.83 350.83-11.74 360.52 0ZM345.94 0L342.19 0 342.19-33.33 345.94-33.33 345.94 0Z" opacity="1" transform="matrix(1,0,0,1,0,0)" fill="#ffffff" class="wordmark-text-0" data-fill-palette-color="primary" id="text-0"></path></svg></g></svg></g><g transform="matrix(1,0,0,1,0,47.183062168531876)"><svg viewBox="0 0 395.52 21.02839537869063" height="21.02839537869063" width="395.52"><g transform="matrix(1,0,0,1,0,0)"><svg width="395.52" viewBox="4 -38.7 934.69 49.7" height="21.02839537869063" data-palette-color="#ffffff"><path d="M22.3 0L4 0 4.6-12.15 4-34.5 22.75-34.5 22.2-29.15 10.95-29.15 10.65-20.3 20.65-20.3 20.1-15 10.45-15 10.4-13 10.75-5.3 22.85-5.3 22.3 0ZM42-12.65Q42-16.1 41.4-17.25 40.8-18.4 38.6-18.4 36.4-18.4 33.6-16.65L33.6-16.65 33.6-13 34.15-1.25 27.45 0 28.05-12.15Q27.85-18.85 26.95-24.15L26.95-24.15 33-25.45Q33.35-22.55 33.5-19.8L33.5-19.8Q34.25-20.8 35.2-21.78 36.15-22.75 38.2-23.98 40.25-25.2 42.35-25.2 44.45-25.2 45.9-23.85 47.35-22.5 47.75-20.15L47.75-20.15Q51.9-25.2 56.15-25.2L56.15-25.2Q58.8-25.2 60.35-23.43 61.9-21.65 61.9-18.6L61.9-18.6 61.6-13 62.15-1 55.4 0.25 56-12.65Q56-16.1 55.4-17.25 54.8-18.4 52.65-18.4 50.5-18.4 47.8-16.75L47.8-16.75 47.6-13 48.15-1 41.4 0.25 42-12.65ZM81-25.25L81-25.25Q84.2-25.25 86.37-22.45 88.55-19.65 88.55-14.9L88.55-14.9Q88.55-8.25 85.12-4.13 81.7 0 76.59 0L76.59 0Q75.55 0 74.25-0.15L74.25-0.15 74.5 9.4 67.65 10.65 68.3-12.15 68.34-12.15Q68.15-18.85 67.25-24.15L67.25-24.15 73.3-25.45Q73.59-22.8 73.8-20.2L73.8-20.2Q73.9-20.45 74.82-21.58 75.75-22.7 77.55-23.98 79.34-25.25 81-25.25ZM79.05-18.75L79.05-18.75Q76.4-18.75 73.9-17.3L73.9-17.3 73.9-13 74.09-5.85Q76.8-5.4 78.2-5.4L78.2-5.4Q83-5.4 83-12.08 83-18.75 79.05-18.75ZM91.19-10.45Q91.19-16.85 94.64-21.3 98.09-25.75 102.72-25.75 107.34-25.75 109.92-22.75 112.49-19.75 112.49-14.8L112.49-14.8Q112.49-8.2 109.17-3.83 105.84 0.55 100.79 0.55L100.79 0.55Q96.64 0.55 93.92-2.58 91.19-5.7 91.19-10.45L91.19-10.45ZM106.89-12.2L106.89-12.2Q106.89-19.45 101.94-19.45L101.94-19.45Q96.79-19.45 96.79-12.65L96.79-12.65Q96.79-9.1 98.24-7.1 99.69-5.1 102.07-5.1 104.44-5.1 105.67-6.93 106.89-8.75 106.89-12.2ZM137.34-14.4L139.09-6.25 139.74-6.25 141.34-13.1 143.94-25.45 150.04-24.7 146.39-12.3 143.34-0.6 135.14 0.15 132.39-12 132.14-12.8 128.79-0.6 120.84 0.15 117.94-12 114.49-24.15 121.04-25.4 123.09-14.4 124.89-6.25 125.54-6.25 129.84-20.5 128.79-24.15 135.24-25.4 137.34-14.4ZM162.34-5.1L162.34-5.1Q163.79-5.1 165.39-5.85 166.99-6.6 167.89-7.35L167.89-7.35 168.79-8.1 171.09-5.3Q170.59-4.45 169.54-3.35 168.49-2.25 167.41-1.48 166.34-0.7 164.56-0.08 162.79 0.55 160.89 0.55L160.89 0.55Q156.84 0.55 154.29-2.53 151.74-5.6 151.74-10.45L151.74-10.45Q151.74-16.55 155.29-21.15 158.84-25.75 163.59-25.75L163.59-25.75Q167.24-25.75 169.26-23.7 171.29-21.65 171.29-17.95L171.29-17.95Q171.29-15.75 170.54-12.95L170.54-12.95 169.54-11.9 157.04-10.75Q157.89-5.1 162.34-5.1ZM162.34-20.6L162.34-20.6Q160.14-20.6 158.64-18.82 157.14-17.05 156.89-14.3L156.89-14.3 165.39-15.35Q165.54-16.5 165.54-17.25L165.54-17.25Q165.54-20.6 162.34-20.6ZM175.09-24.15L175.09-24.15 181.14-25.45Q181.59-21.6 181.74-18.15L181.74-18.15Q186.29-25.2 190.29-25.2L190.29-25.2 189.74-17.4Q186.84-17.4 185.16-16.88 183.49-16.35 181.74-14.8L181.74-14.8 181.74-13 182.29-1.25 175.59 0 176.19-12.15Q175.99-18.85 175.09-24.15ZM193.43-24.2L200.13-25.45 199.53-13 200.08-1.25 193.38 0 193.98-12.15 193.43-24.2ZM193.08-32.77Q193.08-34.45 194.38-35.77 195.68-37.1 197.38-37.1 199.08-37.1 199.98-36.18 200.88-35.25 200.88-33.4 200.88-31.55 199.61-30.23 198.33-28.9 196.66-28.9 194.98-28.9 194.03-30 193.08-31.1 193.08-32.77ZM220.13-12.65Q220.13-16.1 219.53-17.25 218.93-18.4 216.73-18.4 214.53-18.4 211.73-16.65L211.73-16.65 211.73-13 212.28-1.25 205.58 0 206.18-12.15Q205.98-18.85 205.08-24.15L205.08-24.15 211.13-25.45Q211.48-22.55 211.63-19.8L211.63-19.8Q212.38-20.8 213.33-21.78 214.28-22.75 216.33-23.98 218.38-25.2 220.66-25.2 222.93-25.2 224.48-23.43 226.03-21.65 226.03-18.6L226.03-18.6 225.73-13 226.28-1 219.53 0.25 220.13-12.65ZM230.03 4.95L230.03 4.95Q230.03 0.55 238.23-1.95L238.23-1.95Q236.28-2.95 236.28-4.55L236.28-4.55Q236.28-5.2 236.78-5.85 237.28-6.5 238.23-7.2L238.23-7.2 238.23-7.6Q234.63-7.6 232.5-9.6 230.38-11.6 230.38-14.95L230.38-14.95Q230.38-19.3 233.93-22.53 237.48-25.75 242.33-25.75L242.33-25.75Q243.58-25.75 245.98-25.25 248.38-24.75 250.68-24.75L250.68-24.75 254.53-24.75 254.03-20.4 250.28-20.85Q250.78-19.4 250.78-17.55 250.78-15.7 249.9-13.88 249.03-12.05 247.8-10.95 246.58-9.85 245.35-9.03 244.13-8.2 243.25-7.58 242.38-6.95 242.38-6.45L242.38-6.45Q242.38-5.5 244.38-4.8L244.38-4.8Q249.68-2.65 251.55-1.15 253.43 0.35 253.43 2.55L253.43 2.55Q253.43 6.25 249.7 8.63 245.98 11 240.83 11 235.68 11 232.85 9.35 230.03 7.7 230.03 4.95ZM245.13-16.05L245.13-16.05Q245.13-18.5 244.03-19.65 242.93-20.8 240.58-20.8L240.58-20.8Q236.03-20.8 236.03-16.32 236.03-11.85 240.88-11.85L240.88-11.85Q245.13-11.85 245.13-16.05ZM246.93 3.3L246.93 3.3Q246.93 2.4 245.98 1.63 245.03 0.85 242.58-0.2L242.58-0.2Q238.93 0.8 237.55 1.65 236.18 2.5 236.18 3.75 236.18 5 237.55 5.78 238.93 6.55 241.38 6.55 243.83 6.55 245.38 5.65 246.93 4.75 246.93 3.3ZM265.97-34.5L276.82-34.5Q281.62-34.5 284.42-32.33 287.22-30.15 287.22-26.5L287.22-26.5Q287.22-20.65 282.42-18.35L282.42-18.35Q288.92-16.1 288.92-10.05L288.92-10.05Q288.92-5.5 285.02-2.48 281.12 0.55 275.22 0.55L275.22 0.55Q272.12 0.55 265.97 0L265.97 0 266.57-12.15 265.97-34.5ZM276.17-14.85L276.17-14.85 272.12-14.85 272.07-13 272.42-4.85Q275.32-4.6 276.87-4.6L276.87-4.6Q279.52-4.6 281-5.93 282.47-7.25 282.47-9.8 282.47-12.35 280.97-13.6 279.47-14.85 276.17-14.85ZM275.02-29.45L275.02-29.45 272.57-29.45 272.27-19.7 275.52-19.7Q278.07-19.7 279.42-21.08 280.77-22.45 280.77-25L280.77-25Q280.77-29.45 275.02-29.45ZM299.87 0L299.87 0Q297.17 0 295.5-1.78 293.82-3.55 293.82-6.45L293.82-6.45 294.12-12.2 293.57-24.2 300.27-25.45 299.62-10.25Q299.62-8.1 300.4-7.1 301.17-6.1 302.87-6.1 304.57-6.1 307.57-7.8L307.57-7.8 307.57-10.8 307.02-23.95 313.77-25.2 313.17-12.7 313.22-8.6Q313.22-5.4 314.87-2.15L314.87-2.15 309.67 0.15Q308.02-3.1 307.67-5.05L307.67-5.05Q303.17 0 299.87 0ZM326.92-4.65L326.92-4.65Q329.52-4.65 329.52-6.95L329.52-6.95Q329.52-7.75 328.39-8.45 327.27-9.15 325.64-9.85 324.02-10.55 322.39-11.43 320.77-12.3 319.64-13.85 318.52-15.4 318.52-17.4L318.52-17.4Q318.52-20.75 321.47-23.25 324.42-25.75 328.27-25.75L328.27-25.75Q330.07-25.75 331.79-25.33 333.52-24.9 335.12-24L335.12-24 331.77-17.9Q331.42-18.2 330.87-18.65 330.32-19.1 328.79-19.83 327.27-20.55 326.09-20.55 324.92-20.55 324.29-20.03 323.67-19.5 323.67-18.57 323.67-17.65 325.39-16.73 327.12-15.8 329.17-15.03 331.22-14.25 332.94-12.48 334.67-10.7 334.67-8.25L334.67-8.25Q334.67-4.75 331.79-2.1 328.92 0.55 325.17 0.55L325.17 0.55Q322.77 0.55 320.69-0.5 318.62-1.55 317.72-2.6L317.72-2.6 316.82-3.65 320.77-8.25Q321.07-7.85 321.62-7.25 322.17-6.65 323.79-5.65 325.42-4.65 326.92-4.65ZM339.07-24.2L345.77-25.45 345.17-13 345.72-1.25 339.02 0 339.62-12.15 339.07-24.2ZM338.72-32.77Q338.72-34.45 340.02-35.77 341.32-37.1 343.02-37.1 344.72-37.1 345.62-36.18 346.52-35.25 346.52-33.4 346.52-31.55 345.24-30.23 343.97-28.9 342.29-28.9 340.62-28.9 339.67-30 338.72-31.1 338.72-32.77ZM365.76-12.65Q365.76-16.1 365.16-17.25 364.56-18.4 362.36-18.4 360.16-18.4 357.36-16.65L357.36-16.65 357.36-13 357.91-1.25 351.21 0 351.81-12.15Q351.61-18.85 350.71-24.15L350.71-24.15 356.76-25.45Q357.11-22.55 357.26-19.8L357.26-19.8Q358.01-20.8 358.96-21.78 359.91-22.75 361.96-23.98 364.01-25.2 366.29-25.2 368.56-25.2 370.11-23.43 371.66-21.65 371.66-18.6L371.66-18.6 371.36-13 371.91-1 365.16 0.25 365.76-12.65ZM386.41-5.1L386.41-5.1Q387.86-5.1 389.46-5.85 391.06-6.6 391.96-7.35L391.96-7.35 392.86-8.1 395.16-5.3Q394.66-4.45 393.61-3.35 392.56-2.25 391.49-1.48 390.41-0.7 388.64-0.08 386.86 0.55 384.96 0.55L384.96 0.55Q380.91 0.55 378.36-2.53 375.81-5.6 375.81-10.45L375.81-10.45Q375.81-16.55 379.36-21.15 382.91-25.75 387.66-25.75L387.66-25.75Q391.31-25.75 393.34-23.7 395.36-21.65 395.36-17.95L395.36-17.95Q395.36-15.75 394.61-12.95L394.61-12.95 393.61-11.9 381.11-10.75Q381.96-5.1 386.41-5.1ZM386.41-20.6L386.41-20.6Q384.21-20.6 382.71-18.82 381.21-17.05 380.96-14.3L380.96-14.3 389.46-15.35Q389.61-16.5 389.61-17.25L389.61-17.25Q389.61-20.6 386.41-20.6ZM407.26-4.65L407.26-4.65Q409.86-4.65 409.86-6.95L409.86-6.95Q409.86-7.75 408.73-8.45 407.61-9.15 405.98-9.85 404.36-10.55 402.73-11.43 401.11-12.3 399.98-13.85 398.86-15.4 398.86-17.4L398.86-17.4Q398.86-20.75 401.81-23.25 404.76-25.75 408.61-25.75L408.61-25.75Q410.41-25.75 412.13-25.33 413.86-24.9 415.46-24L415.46-24 412.11-17.9Q411.76-18.2 411.21-18.65 410.66-19.1 409.13-19.83 407.61-20.55 406.43-20.55 405.26-20.55 404.63-20.03 404.01-19.5 404.01-18.57 404.01-17.65 405.73-16.73 407.46-15.8 409.51-15.03 411.56-14.25 413.28-12.48 415.01-10.7 415.01-8.25L415.01-8.25Q415.01-4.75 412.13-2.1 409.26 0.55 405.51 0.55L405.51 0.55Q403.11 0.55 401.03-0.5 398.96-1.55 398.06-2.6L398.06-2.6 397.16-3.65 401.11-8.25Q401.41-7.85 401.96-7.25 402.51-6.65 404.13-5.65 405.76-4.65 407.26-4.65ZM426.96-4.65L426.96-4.65Q429.56-4.65 429.56-6.95L429.56-6.95Q429.56-7.75 428.43-8.45 427.31-9.15 425.68-9.85 424.06-10.55 422.43-11.43 420.81-12.3 419.68-13.85 418.56-15.4 418.56-17.4L418.56-17.4Q418.56-20.75 421.51-23.25 424.46-25.75 428.31-25.75L428.31-25.75Q430.11-25.75 431.83-25.33 433.56-24.9 435.16-24L435.16-24 431.81-17.9Q431.46-18.2 430.91-18.65 430.36-19.1 428.83-19.83 427.31-20.55 426.13-20.55 424.96-20.55 424.33-20.03 423.71-19.5 423.71-18.57 423.71-17.65 425.43-16.73 427.16-15.8 429.21-15.03 431.26-14.25 432.98-12.48 434.71-10.7 434.71-8.25L434.71-8.25Q434.71-4.75 431.83-2.1 428.96 0.55 425.21 0.55L425.21 0.55Q422.81 0.55 420.73-0.5 418.66-1.55 417.76-2.6L417.76-2.6 416.86-3.65 420.81-8.25Q421.11-7.85 421.66-7.25 422.21-6.65 423.83-5.65 425.46-4.65 426.96-4.65ZM448.1-5.1L448.1-5.1Q449.55-5.1 451.15-5.85 452.75-6.6 453.65-7.35L453.65-7.35 454.55-8.1 456.85-5.3Q456.35-4.45 455.3-3.35 454.25-2.25 453.18-1.48 452.1-0.7 450.33-0.08 448.55 0.55 446.65 0.55L446.65 0.55Q442.6 0.55 440.05-2.53 437.5-5.6 437.5-10.45L437.5-10.45Q437.5-16.55 441.05-21.15 444.6-25.75 449.35-25.75L449.35-25.75Q453-25.75 455.03-23.7 457.05-21.65 457.05-17.95L457.05-17.95Q457.05-15.75 456.3-12.95L456.3-12.95 455.3-11.9 442.8-10.75Q443.65-5.1 448.1-5.1ZM448.1-20.6L448.1-20.6Q445.9-20.6 444.4-18.82 442.9-17.05 442.65-14.3L442.65-14.3 451.15-15.35Q451.3-16.5 451.3-17.25L451.3-17.25Q451.3-20.6 448.1-20.6ZM468.95-4.65L468.95-4.65Q471.55-4.65 471.55-6.95L471.55-6.95Q471.55-7.75 470.43-8.45 469.3-9.15 467.68-9.85 466.05-10.55 464.43-11.43 462.8-12.3 461.68-13.85 460.55-15.4 460.55-17.4L460.55-17.4Q460.55-20.75 463.5-23.25 466.45-25.75 470.3-25.75L470.3-25.75Q472.1-25.75 473.83-25.33 475.55-24.9 477.15-24L477.15-24 473.8-17.9Q473.45-18.2 472.9-18.65 472.35-19.1 470.83-19.83 469.3-20.55 468.13-20.55 466.95-20.55 466.33-20.03 465.7-19.5 465.7-18.57 465.7-17.65 467.43-16.73 469.15-15.8 471.2-15.03 473.25-14.25 474.98-12.48 476.7-10.7 476.7-8.25L476.7-8.25Q476.7-4.75 473.83-2.1 470.95 0.55 467.2 0.55L467.2 0.55Q464.8 0.55 462.73-0.5 460.65-1.55 459.75-2.6L459.75-2.6 458.85-3.65 462.8-8.25Q463.1-7.85 463.65-7.25 464.2-6.65 465.83-5.65 467.45-4.65 468.95-4.65ZM479.7-3.35Q479.7-4.95 480.87-6.18 482.05-7.4 483.7-7.4L483.7-7.4Q486.95-7.4 486.95-4.1L486.95-4.1Q486.95-2.2 485.77-0.95 484.6 0.3 483.02 0.3 481.45 0.3 480.57-0.73 479.7-1.75 479.7-3.35ZM500.14-34.5L510.99-34.5Q515.79-34.5 518.59-32.33 521.39-30.15 521.39-26.5L521.39-26.5Q521.39-20.65 516.59-18.35L516.59-18.35Q523.09-16.1 523.09-10.05L523.09-10.05Q523.09-5.5 519.19-2.48 515.29 0.55 509.39 0.55L509.39 0.55Q506.29 0.55 500.14 0L500.14 0 500.74-12.15 500.14-34.5ZM510.34-14.85L510.34-14.85 506.29-14.85 506.24-13 506.59-4.85Q509.49-4.6 511.04-4.6L511.04-4.6Q513.69-4.6 515.17-5.93 516.64-7.25 516.64-9.8 516.64-12.35 515.14-13.6 513.64-14.85 510.34-14.85ZM509.19-29.45L509.19-29.45 506.74-29.45 506.44-19.7 509.69-19.7Q512.24-19.7 513.59-21.08 514.94-22.45 514.94-25L514.94-25Q514.94-29.45 509.19-29.45ZM534.04 0L534.04 0Q531.34 0 529.66-1.78 527.99-3.55 527.99-6.45L527.99-6.45 528.29-12.2 527.74-24.2 534.44-25.45 533.79-10.25Q533.79-8.1 534.56-7.1 535.34-6.1 537.04-6.1 538.74-6.1 541.74-7.8L541.74-7.8 541.74-10.8 541.19-23.95 547.94-25.2 547.34-12.7 547.39-8.6Q547.39-5.4 549.04-2.15L549.04-2.15 543.84 0.15Q542.19-3.1 541.84-5.05L541.84-5.05Q537.34 0 534.04 0ZM553.54-24.2L560.24-25.45 559.64-13 560.19-1.25 553.49 0 554.09-12.15 553.54-24.2ZM553.19-32.77Q553.19-34.45 554.49-35.77 555.79-37.1 557.49-37.1 559.19-37.1 560.09-36.18 560.99-35.25 560.99-33.4 560.99-31.55 559.71-30.23 558.44-28.9 556.76-28.9 555.09-28.9 554.14-30 553.19-31.1 553.19-32.77ZM565.73-37.45L572.58-38.7 571.93-13 572.48-1.25 565.73 0 566.33-12.15 565.73-37.45ZM591.58-4.9L591.58-4.9Q587.68 0 584.83 0L584.83 0Q581.28 0 579.01-2.9 576.73-5.8 576.73-10.35L576.73-10.35Q576.73-16.6 580.21-20.9 583.68-25.2 588.73-25.2L588.73-25.2 591.53-24.8 591.53-25.75 590.93-37.45 597.78-38.7 597.13-13 597.13-8.6Q597.13-5.6 598.63-1.7L598.63-1.7 593.23 0.55Q591.78-2.45 591.58-4.9ZM582.33-12.95Q582.33-9.75 583.51-7.95 584.68-6.15 586.91-6.15 589.13-6.15 591.53-7.95L591.53-7.95 591.53-18.75Q588.53-19.35 587.08-19.35L587.08-19.35Q584.83-19.35 583.58-17.75 582.33-16.15 582.33-12.95ZM603.48-24.2L610.18-25.45 609.58-13 610.13-1.25 603.43 0 604.03-12.15 603.48-24.2ZM603.13-32.77Q603.13-34.45 604.43-35.77 605.73-37.1 607.43-37.1 609.13-37.1 610.03-36.18 610.93-35.25 610.93-33.4 610.93-31.55 609.65-30.23 608.38-28.9 606.7-28.9 605.03-28.9 604.08-30 603.13-31.1 603.13-32.77ZM630.18-12.65Q630.18-16.1 629.58-17.25 628.98-18.4 626.78-18.4 624.58-18.4 621.78-16.65L621.78-16.65 621.78-13 622.33-1.25 615.63 0 616.23-12.15Q616.03-18.85 615.13-24.15L615.13-24.15 621.18-25.45Q621.53-22.55 621.68-19.8L621.68-19.8Q622.43-20.8 623.38-21.78 624.33-22.75 626.38-23.98 628.43-25.2 630.7-25.2 632.98-25.2 634.53-23.43 636.08-21.65 636.08-18.6L636.08-18.6 635.78-13 636.33-1 629.58 0.25 630.18-12.65ZM640.07 4.95L640.07 4.95Q640.07 0.55 648.27-1.95L648.27-1.95Q646.32-2.95 646.32-4.55L646.32-4.55Q646.32-5.2 646.82-5.85 647.32-6.5 648.27-7.2L648.27-7.2 648.27-7.6Q644.67-7.6 642.55-9.6 640.42-11.6 640.42-14.95L640.42-14.95Q640.42-19.3 643.97-22.53 647.52-25.75 652.37-25.75L652.37-25.75Q653.62-25.75 656.02-25.25 658.42-24.75 660.72-24.75L660.72-24.75 664.57-24.75 664.07-20.4 660.32-20.85Q660.82-19.4 660.82-17.55 660.82-15.7 659.95-13.88 659.07-12.05 657.85-10.95 656.62-9.85 655.4-9.03 654.17-8.2 653.3-7.58 652.42-6.95 652.42-6.45L652.42-6.45Q652.42-5.5 654.42-4.8L654.42-4.8Q659.72-2.65 661.6-1.15 663.47 0.35 663.47 2.55L663.47 2.55Q663.47 6.25 659.75 8.63 656.02 11 650.87 11 645.72 11 642.9 9.35 640.07 7.7 640.07 4.95ZM655.17-16.05L655.17-16.05Q655.17-18.5 654.07-19.65 652.97-20.8 650.62-20.8L650.62-20.8Q646.07-20.8 646.07-16.32 646.07-11.85 650.92-11.85L650.92-11.85Q655.17-11.85 655.17-16.05ZM656.97 3.3L656.97 3.3Q656.97 2.4 656.02 1.63 655.07 0.85 652.62-0.2L652.62-0.2Q648.97 0.8 647.6 1.65 646.22 2.5 646.22 3.75 646.22 5 647.6 5.78 648.97 6.55 651.42 6.55 653.87 6.55 655.42 5.65 656.97 4.75 656.97 3.3ZM686.67 0.55L686.67 0.55Q681.12 0.55 677.32-4.1 673.52-8.75 673.52-15.5L673.52-15.5Q673.52-23.75 678.09-29.4 682.67-35.05 689.32-35.05L689.32-35.05Q691.92-35.05 694.14-34.52 696.37-34 697.32-33.45L697.32-33.45 698.22-32.9 694.82-25.95Q693.67-26.95 691.57-27.83 689.47-28.7 687.77-28.7L687.77-28.7Q684.32-28.7 682.24-25.85 680.17-23 680.17-17.73 680.17-12.45 682.32-9.08 684.47-5.7 688.17-5.7L688.17-5.7Q690.57-5.7 692.52-7.2 694.47-8.7 695.27-11.2L695.27-11.2 699.42-8.8Q697.77-4.4 694.37-1.93 690.97 0.55 686.67 0.55ZM700.97-10.45Q700.97-16.85 704.42-21.3 707.87-25.75 712.49-25.75 717.12-25.75 719.69-22.75 722.27-19.75 722.27-14.8L722.27-14.8Q722.27-8.2 718.94-3.83 715.62 0.55 710.57 0.55L710.57 0.55Q706.42 0.55 703.69-2.58 700.97-5.7 700.97-10.45L700.97-10.45ZM716.67-12.2L716.67-12.2Q716.67-19.45 711.72-19.45L711.72-19.45Q706.57-19.45 706.57-12.65L706.57-12.65Q706.57-9.1 708.02-7.1 709.47-5.1 711.84-5.1 714.22-5.1 715.44-6.93 716.67-8.75 716.67-12.2ZM741.06-12.65Q741.06-16.1 740.46-17.25 739.86-18.4 737.66-18.4 735.46-18.4 732.66-16.65L732.66-16.65 732.66-13 733.21-1.25 726.51 0 727.11-12.15Q726.91-18.85 726.01-24.15L726.01-24.15 732.06-25.45Q732.41-22.55 732.56-19.8L732.56-19.8Q733.31-20.8 734.26-21.78 735.21-22.75 737.26-23.98 739.31-25.2 741.41-25.2 743.51-25.2 744.96-23.85 746.41-22.5 746.81-20.15L746.81-20.15Q750.96-25.2 755.21-25.2L755.21-25.2Q757.86-25.2 759.41-23.43 760.96-21.65 760.96-18.6L760.96-18.6 760.66-13 761.21-1 754.46 0.25 755.06-12.65Q755.06-16.1 754.46-17.25 753.86-18.4 751.71-18.4 749.56-18.4 746.86-16.75L746.86-16.75 746.66-13 747.21-1 740.46 0.25 741.06-12.65ZM781.21-12.65Q781.21-16.1 780.61-17.25 780.01-18.4 777.81-18.4 775.61-18.4 772.81-16.65L772.81-16.65 772.81-13 773.36-1.25 766.66 0 767.26-12.15Q767.06-18.85 766.16-24.15L766.16-24.15 772.21-25.45Q772.56-22.55 772.71-19.8L772.71-19.8Q773.46-20.8 774.41-21.78 775.36-22.75 777.41-23.98 779.46-25.2 781.56-25.2 783.66-25.2 785.11-23.85 786.56-22.5 786.96-20.15L786.96-20.15Q791.11-25.2 795.36-25.2L795.36-25.2Q798.01-25.2 799.56-23.43 801.11-21.65 801.11-18.6L801.11-18.6 800.81-13 801.36-1 794.61 0.25 795.21-12.65Q795.21-16.1 794.61-17.25 794.01-18.4 791.86-18.4 789.71-18.4 787.01-16.75L787.01-16.75 786.81-13 787.36-1 780.61 0.25 781.21-12.65ZM812.86 0L812.86 0Q810.16 0 808.48-1.78 806.81-3.55 806.81-6.45L806.81-6.45 807.11-12.2 806.56-24.2 813.26-25.45 812.61-10.25Q812.61-8.1 813.38-7.1 814.16-6.1 815.86-6.1 817.56-6.1 820.56-7.8L820.56-7.8 820.56-10.8 820.01-23.95 826.76-25.2 826.16-12.7 826.21-8.6Q826.21-5.4 827.86-2.15L827.86-2.15 822.66 0.15Q821.01-3.1 820.66-5.05L820.66-5.05Q816.16 0 812.86 0ZM846.86-12.65Q846.86-16.1 846.26-17.25 845.66-18.4 843.46-18.4 841.26-18.4 838.46-16.65L838.46-16.65 838.46-13 839.01-1.25 832.31 0 832.91-12.15Q832.71-18.85 831.81-24.15L831.81-24.15 837.86-25.45Q838.21-22.55 838.36-19.8L838.36-19.8Q839.11-20.8 840.06-21.78 841.01-22.75 843.06-23.98 845.11-25.2 847.38-25.2 849.66-25.2 851.21-23.43 852.76-21.65 852.76-18.6L852.76-18.6 852.46-13 853.01-1 846.26 0.25 846.86-12.65ZM858.5-24.2L865.2-25.45 864.6-13 865.15-1.25 858.45 0 859.05-12.15 858.5-24.2ZM858.15-32.77Q858.15-34.45 859.45-35.77 860.75-37.1 862.45-37.1 864.15-37.1 865.05-36.18 865.95-35.25 865.95-33.4 865.95-31.55 864.68-30.23 863.4-28.9 861.73-28.9 860.05-28.9 859.1-30 858.15-31.1 858.15-32.77ZM869.75-24.2L872.65-24.2 872.65-29.65 879.4-30.95 878.75-24.2 884.8-24.2 884.25-20.1 878.55-20.1 878.3-9.65Q878.3-7.3 878.75-6.53 879.2-5.75 880.4-5.75 881.6-5.75 883.6-6.3L883.6-6.3 883.9-2.75Q880.6 0 878.1 0 875.6 0 874-1.83 872.4-3.65 872.4-6.6L872.4-6.6 872.7-12.2 872.65-20.1 869.2-20.1 869.75-24.2ZM888.45-24.2L895.15-25.45 894.55-13 895.1-1.25 888.4 0 889-12.15 888.45-24.2ZM888.1-32.77Q888.1-34.45 889.4-35.77 890.7-37.1 892.4-37.1 894.1-37.1 895-36.18 895.9-35.25 895.9-33.4 895.9-31.55 894.62-30.23 893.35-28.9 891.67-28.9 890-28.9 889.05-30 888.1-31.1 888.1-32.77ZM909.65-5.1L909.65-5.1Q911.1-5.1 912.7-5.85 914.3-6.6 915.2-7.35L915.2-7.35 916.1-8.1 918.4-5.3Q917.9-4.45 916.85-3.35 915.8-2.25 914.72-1.48 913.65-0.7 911.87-0.08 910.1 0.55 908.2 0.55L908.2 0.55Q904.15 0.55 901.6-2.53 899.05-5.6 899.05-10.45L899.05-10.45Q899.05-16.55 902.6-21.15 906.15-25.75 910.9-25.75L910.9-25.75Q914.55-25.75 916.57-23.7 918.6-21.65 918.6-17.95L918.6-17.95Q918.6-15.75 917.85-12.95L917.85-12.95 916.85-11.9 904.35-10.75Q905.2-5.1 909.65-5.1ZM909.65-20.6L909.65-20.6Q907.45-20.6 905.95-18.82 904.45-17.05 904.2-14.3L904.2-14.3 912.7-15.35Q912.85-16.5 912.85-17.25L912.85-17.25Q912.85-20.6 909.65-20.6ZM930.49-4.65L930.49-4.65Q933.09-4.65 933.09-6.95L933.09-6.95Q933.09-7.75 931.97-8.45 930.84-9.15 929.22-9.85 927.59-10.55 925.97-11.43 924.34-12.3 923.22-13.85 922.09-15.4 922.09-17.4L922.09-17.4Q922.09-20.75 925.04-23.25 927.99-25.75 931.84-25.75L931.84-25.75Q933.64-25.75 935.37-25.33 937.09-24.9 938.69-24L938.69-24 935.34-17.9Q934.99-18.2 934.44-18.65 933.89-19.1 932.37-19.83 930.84-20.55 929.67-20.55 928.49-20.55 927.87-20.03 927.24-19.5 927.24-18.57 927.24-17.65 928.97-16.73 930.69-15.8 932.74-15.03 934.79-14.25 936.52-12.48 938.24-10.7 938.24-8.25L938.24-8.25Q938.24-4.75 935.37-2.1 932.49 0.55 928.74 0.55L928.74 0.55Q926.34 0.55 924.27-0.5 922.19-1.55 921.29-2.6L921.29-2.6 920.39-3.65 924.34-8.25Q924.64-7.85 925.19-7.25 925.74-6.65 927.37-5.65 928.99-4.65 930.49-4.65Z" opacity="1" transform="matrix(1,0,0,1,0,0)" fill="#ffffff" class="slogan-text-1" data-fill-palette-color="secondary" id="text-1"></path></svg></g></svg></g></svg></g></svg></g><g transform="matrix(1,0,0,1,119.41676004763806,0)"><svg viewBox="0 0 158.6640799047238 94.26823433026152" height="94.26823433026152" width="158.6640799047238"><g><svg version="1.1" xmlns="http://www.w3.org/2000/svg" xmlns:xlink="http://www.w3.org/1999/xlink" x="0" y="0" viewBox="0 0 100.001 59.41431549548741" enable-background="new 0 0 100.001 59.415" xml:space="preserve" id="icon-0" width="158.6640799047238" height="94.26823433026152" class="icon-icon-0" data-fill-palette-color="accent"><g fill="#ffffff" data-fill-palette-color="accent"><path fill="#ffffff" d="M76.545 4.637S75.011 6.332 69.764 5.445L49.987 1.816S47.399 1.668 44.896 2.798L33.916 6.637S28.03 11.218 23.025 16.545C23.025 16.545 21.334 19.973 27.711 19.57 27.711 19.57 35.056 17.632 37.558 14.404 37.558 14.404 44.617 11.629 46.598 12.305L73.802 30.547S78.726 35.391 79.127 37.167C79.127 37.167 83.969 32.807 85.745 30.87L90.346 28.61C90.347 28.609 82.438 6.251 76.545 4.637" data-fill-palette-color="accent"></path><path fill="#ffffff" d="M14.961 38.884S12.943 43.969 15.849 45.502C15.849 45.502 17.867 46.955 20.53 45.342L21.499 43.646C21.5 43.646 16.333 39.125 14.961 38.884" data-fill-palette-color="accent"></path><path fill="#ffffff" d="M27.14 50.017L28.785 46.151S29.428 42.966 26.282 42.058C26.282 42.058 23.565 41.147 23.136 42.587L21.06 46S20.56 48.349 21.132 49.108C21.132 49.108 22.348 51.154 23.634 51.382 23.635 51.383 25.852 51.913 27.14 50.017" data-fill-palette-color="accent"></path><path fill="#ffffff" d="M34.203 53.384L35.857 49.445S36.504 46.201 33.34 45.276C33.34 45.276 30.607 44.347 30.176 45.815L28.09 49.29S27.587 51.685 28.161 52.456C28.161 52.456 29.384 54.54 30.678 54.774 30.678 54.774 32.908 55.313 34.203 53.384" data-fill-palette-color="accent"></path><path fill="#ffffff" d="M44.393 58.042S40.914 55.453 40.606 54.937C40.606 54.937 38.75 51.833 36.508 52.793 36.508 52.793 33.261 53.902 34.575 56.564L37.668 59.225C37.667 59.226 39.523 60.112 44.393 58.042" data-fill-palette-color="accent"></path></g><path fill="#ffffff" d="M19.936 9.487S23.123 10.73 24.133 10.652L27.604 10.94S25.087 13.37 24.699 13.604L21.631 16.671S21.051 20.179 24.937 20.8C24.937 20.8 29.6 21.266 36.983 15.826 36.983 15.826 41.455 13.929 43.51 13.572L46.147 13.803 72.81 31.602S77.705 36.032 77.938 38.285C77.938 38.285 79.257 42.016 76.151 44.425 76.151 44.425 74.828 46.446 70.945 44.193L58.664 35.644S67.448 42.095 67.913 45.826C67.913 45.826 68.611 47.38 66.98 50.488 66.98 50.488 65.504 53.206 61.305 52.275L52.914 44.815 52.305 45.023S60.083 52.756 60.16 53.146C60.16 53.146 62.008 57.403 54.78 56.781L47.395 51.108 44.52 49.865 44.132 50.099S47.81 52.172 52.395 56.448C52.395 56.448 52.216 59.192 46.852 58.57L40.946 54.373S39.984 50.832 36.564 51.298C36.564 51.298 38.919 46.464 35.111 44.598 35.111 44.598 32.319 43.261 30.144 44.581 30.144 44.581 29.989 40.772 26.414 40.386 26.414 40.386 23.15 39.608 22.372 42.638L13.479 36.042S18.848 8.166 19.936 9.487" data-fill-palette-color="accent"></path><path fill="#ffffff" d="M18.205 8.154S11.625 31.575 11.868 36.095L0 34.024 8.878 5.093z" data-fill-palette-color="accent"></path><path fill="#ffffff" d="M77.56 3.794S82.484 5.812 87.006 16.224C87.006 16.224 91.93 28.412 91.93 29.704L100.001 27.282S92.978 6.215 86.036 0z" data-fill-palette-color="accent"></path></svg></g></svg></g><g></g></svg></g></svg></g><defs></defs></svg><rect width="395.52" height="183.0297237237196" fill="none" stroke="none" visibility="hidden"></rect></g></svg></g></svg>